<?xml version="1.0" encoding="UTF-8" standalone="no"?>
<!-- Created with Inkscape (http://www.inkscape.org/) -->

<svg
   width="128mm"
   height="100mm"
   viewBox="0 0 128 100"
   version="1.1"
   id="svg1"
   xml:space="preserve"
   inkscape:version="1.4.3 (0d15f75, 2025-12-25)"
   sodipodi:docname="logo-v2.svg"
   inkscape:export-filename="logo-black-400.png"
   inkscape:export-xdpi="79.375"
   inkscape:export-ydpi="79.375"
   xmlns:inkscape="http://www.inkscape.org/namespaces/inkscape"
   xmlns:sodipodi="http://sodipodi.sourceforge.net/DTD/sodipodi-0.dtd"
   xmlns:xlink="http://www.w3.org/1999/xlink"
   xmlns="http://www.w3.org/2000/svg"
   xmlns:svg="http://www.w3.org/2000/svg"><sodipodi:namedview
     id="namedview1"
     pagecolor="#505050"
     bordercolor="#eeeeee"
     borderopacity="1"
     inkscape:showpageshadow="0"
     inkscape:pageopacity="0"
     inkscape:pagecheckerboard="0"
     inkscape:deskcolor="#505050"
     inkscape:document-units="mm"
     showgrid="false"
     inkscape:zoom="1.3362942"
     inkscape:cx="237.97155"
     inkscape:cy="274.26595"
     inkscape:window-width="1920"
     inkscape:window-height="1022"
     inkscape:window-x="0"
     inkscape:window-y="145"
     inkscape:window-maximized="0"
     inkscape:current-layer="g8" /><defs
     id="defs1"><linearGradient
       id="linearGradient1"
       inkscape:collect="always"><stop
         style="stop-color:#e9e9cc;stop-opacity:1;"
         offset="0.65337956"
         id="stop1" /><stop
         style="stop-color:#ffffff;stop-opacity:0;"
         offset="1"
         id="stop2" /></linearGradient><linearGradient
       id="linearGradient5"
       inkscape:collect="always"><stop
         style="stop-color:#8f28c7;stop-opacity:1;"
         offset="0"
         id="stop5" /><stop
         style="stop-color:#2868d7;stop-opacity:1;"
         offset="1"
         id="stop6" /></linearGradient><linearGradient
       inkscape:collect="always"
       xlink:href="#linearGradient5"
       id="linearGradient6"
       x1="59.186275"
       y1="60.179375"
       x2="167.80971"
       y2="60.179375"
       gradientUnits="userSpaceOnUse"
       gradientTransform="matrix(1,0,0,1.0271586,-46.790635,-9.4377825)" /><radialGradient
       inkscape:collect="always"
       xlink:href="#linearGradient1"
       id="radialGradient2"
       cx="66.706916"
       cy="52.372148"
       fx="66.706916"
       fy="52.372148"
       r="54.81778"
       gradientTransform="matrix(1,0,0,0.77172311,0,11.955351)"
       gradientUnits="userSpaceOnUse" /></defs><g
     inkscape:label="Layer 1"
     inkscape:groupmode="layer"
     id="layer1"><g
       id="g8"
       transform="translate(-2.1779759,-2.3759758)"><path
         style="fill:url(#linearGradient6);fill-opacity:1;stroke-width:2;stroke-dasharray:none;stroke:url(#radialGradient2);stroke-opacity:1;stroke-linejoin:miter;stroke-linecap:square;paint-order:stroke fill markers"
         d="M 60.308754,92.949546 C 47.419104,84.966233 33.960424,82.791081 18.152004,86.1363 l -4.40707,0.932578 -0.62922,-0.798164 c -0.90352,-1.146093 -0.98483,-59.72768 -0.0842,-60.65278 0.60603,-0.622489 2.39145,-1.184663 4.87121,-1.533784 l 1.6393,-0.230792 0.005,-2.396669 c 0.008,-3.503227 0.60095,-4.027284 4.55752,-4.027284 h 2.49263 v -2.872983 c 0,-8.5917665 22.23237,-2.263642 32.95998,9.381574 1.962268,2.130131 2.122318,2.228995 2.582528,1.59531 2.844934,-2.914737 4.263754,-5.934347 8.554724,-9.009536 8.65047,-5.777291 18.86406,-6.352089 28.36052,-1.596051 8.404334,4.209091 15.031144,14.842863 15.031144,24.119882 v 2.275208 l 1.89043,1.242143 c 9.22112,6.05888 4.91047,23.766786 -5.78863,23.779338 -4.1767,0.0051 -3.86291,1.039679 -3.86291,-12.738739 0,-13.464293 -0.19856,-12.622824 2.9785,-12.622824 h 1.61377 l -0.21576,-2.083571 C 107.77583,10.646598 70.724776,6.5069131 62.613362,33.526305 c -1.08904,3.627637 -1.648428,4.11565 -3.219618,2.808827 -0.79962,-0.665075 -0.56295,-3.306167 0.53425,-5.96171 0.36371,-0.880275 -5.74744,-7.096906 -9.34193,-9.503159 -4.98568,-3.337567 -11.92401,-5.905176 -17.90347,-6.625388 l -2.55764,-0.308056 v 18.958328 18.958338 h 6.62172 6.62173 l 0.69841,-2.053105 c 2.32325,-6.829546 7.0988,-4.249571 8.44567,4.562762 1.01544,6.643795 1.63686,6.091246 2.49018,-2.214205 0.95521,-9.297141 2.01031,-11.890932 4.83697,-11.890932 3.157902,0 4.513932,2.978513 5.031642,11.051939 0.98053,15.29093 2.60752,14.173412 4.22044,-2.898868 1.19069,-12.603164 2.32942,-15.96981 4.98173,-14.728519 1.92358,0.900243 3.26255,7.698286 3.35464,17.031655 0.0269,2.720748 0.4954,7.4696 0.62752,6.35992 1.18262,-9.933445 2.9069,-17.178488 4.08838,-17.178488 1.63755,0 1.84227,0.946547 2.27279,10.508408 0.92454,20.534584 1.09192,21.427709 1.76561,9.421324 0.96565,-17.209847 6.94975,-22.32069 8.48544,-7.247179 0.6381,6.263305 0.9661,7.010491 1.567,3.569766 0.60334,-3.454611 5.187814,-5.706359 7.267904,-3.569766 1.39273,1.430555 0.43005,2.77831 -2.11729,2.964236 l -1.586864,0.115822 -0.53827,2.319982 c -1.85919,8.013254 -6.89159,5.463991 -7.79256,-3.947484 -0.69252,-7.234021 -1.14908,-5.983435 -1.91706,5.251082 -0.90059,13.174469 -1.69302,16.552455 -3.93626,16.77958 -2.47829,0.250915 -3.59401,-3.284463 -3.89458,-12.340684 -0.228,-6.869852 -0.37553,-6.998576 -1.4532,-1.267976 -1.23271,6.555121 -1.7473,7.524163 -3.72479,7.014374 -1.49785,-0.38615 -1.75798,-1.995471 -2.31992,-14.352415 -0.64818,-14.253531 -1.01702,-16.320698 -1.58083,-8.859952 -1.09445,14.4823 -2.46604,19.465395 -5.494,19.960085 -3.24503,0.530158 -5.571194,-5.515749 -5.637234,-14.651688 -0.0136,-1.883645 -0.874128,-7.263429 -1.218368,-7.617018 -0.6667,-0.684807 -1.42209,2.553917 -1.94422,8.335834 -1.15172,12.754023 -7.50303,14.842452 -9.16589,3.013919 -0.81952,-5.829505 -1.29857,-6.64854 -2.12194,-3.627872 -0.28471,1.044497 -0.88637,2.039988 -1.64817,2.727023 l -1.19977,1.08203 h -8.22333 c -10.67456,0 -9.39101,2.443097 -9.39101,-17.874706 V 21.052995 h -1.76389 -1.76389 v 27.404766 27.404766 l 1.73205,-0.236011 c 5.69149,-0.775504 17.72296,1.80404 24.46171,5.24458 3.51569,1.79498 3.48815,1.352007 -0.0657,-1.056176 -5.74902,-3.895735 -10.81364,-5.905679 -17.34914,-6.885188 -5.49969,-0.824264 -5.25117,-0.505896 -5.25117,-6.726821 0,-5.45492 0.3353,-6.739896 1.7587,-6.739896 1.476,0 1.76908,0.892519 1.76908,5.387488 v 4.248636 l 2.73403,0.415291 c 10.33182,1.569364 21.1889,7.878501 27.13202,15.766648 0.41293,0.548061 0.8073,0.996641 0.87639,0.996837 0.0691,2.05e-4 0.0777,-3.741754 0.0191,-8.315445 -0.11142,-8.700239 0.0791,-9.802842 1.693998,-9.802842 2.001684,0 2.927724,24.124329 0.979844,25.525744 -1.010014,0.726653 -0.822094,0.769167 -3.252022,-0.735826 z M 20.776764,82.054054 c 5.63701,-1.07334 17.27925,-1.010673 21.31003,0.114713 0.52783,0.147366 0.76657,0.100148 0.63122,-0.1248 -0.11974,-0.198992 -1.21612,-0.632607 -2.43642,-0.963588 -5.35644,-1.452854 -7.68118,-1.77949 -13.684,-1.922707 -8.01072,-0.191124 -7.05555,3.421804 -7.05555,-26.687491 0,-21.81124 -0.0701,-25.30699 -0.50412,-25.135927 -0.27726,0.10929 -1.07101,0.307943 -1.76388,0.441453 l -1.25978,0.242758 V 55.55668 83.094894 l 0.97014,-0.251736 c 0.53358,-0.138451 2.24014,-0.49355 3.79236,-0.789104 z M 114.09007,61.908937 c 5.53088,-3.866513 3.29603,-17.302631 -2.87798,-17.302631 h -1.71171 v 9.058974 9.058964 h 1.71171 c 1.19438,0 2.06421,-0.246416 2.87798,-0.815307 z"
         id="path1"
         sodipodi:nodetypes="sscssscsscsssssscscsscsssssscccccsssssssccssssssscsssssssssssssssscsscccccssssssscssscsssssssssssscccsssscccss" /></g></g></svg>
