<svg version="1.1" id="Layer_1" xmlns="http://www.w3.org/2000/svg" xmlns:xlink="http://www.w3.org/1999/xlink" x="0px" y="0px"
	 width="100%" viewBox="0 0 880 672" enable-background="new 0 0 880 672" xml:space="preserve">
<path fill="#000000" opacity="1.000000" stroke="none" 
	d="
M141.373230,336.591492 
	C146.988373,315.140320 159.017487,299.340485 178.114899,288.488892 
	C185.949554,284.037048 191.631836,277.905182 193.097000,267.297119 
	C196.986145,239.138855 208.754166,213.771408 224.837463,190.433258 
	C230.229401,182.609100 236.246353,175.251526 242.823257,168.372955 
	C244.648361,166.464127 245.851730,164.802460 243.954239,161.906403 
	C239.768784,155.518326 239.977112,154.611969 245.889908,148.933044 
	C261.433136,134.004578 278.190094,120.580734 296.347961,108.956619 
	C329.604004,87.667145 365.853516,73.908684 404.648285,67.086555 
	C458.657440,57.588963 511.033600,64.153717 561.861572,84.301926 
	C597.973511,98.616699 629.464844,120.064400 657.775696,146.420380 
	C659.237854,147.781586 660.585144,149.265411 662.005920,150.671982 
	C665.303467,153.936630 666.270081,157.378860 662.774597,161.120056 
	C660.362183,163.702042 660.769653,165.754410 663.181335,168.348785 
	C691.330200,198.629745 708.398926,234.266922 714.357605,275.191803 
	C714.692444,277.492004 715.869507,278.893188 717.548340,280.486572 
	C723.763672,286.385529 731.524902,290.060974 738.156921,295.265137 
	C756.231934,309.448608 765.071655,328.655762 767.328735,351.201202 
	C770.239563,380.276062 765.075256,408.564026 758.985779,436.757019 
	C756.587830,447.859131 753.930420,458.847565 746.344421,467.888000 
	C738.366455,477.395630 728.488525,483.200439 715.948486,483.925140 
	C714.478516,484.010071 713.369507,484.310852 712.454590,485.388214 
	C708.523193,490.017303 703.781616,493.566620 698.066956,495.675934 
	C702.128357,504.308960 700.382446,506.858398 691.001343,508.382080 
	C625.652893,518.996399 561.729797,534.321411 502.943024,566.257812 
	C497.688538,569.112366 492.676453,572.413086 487.743500,575.967346 
	C497.758209,572.518250 507.780273,569.090393 517.786194,565.616028 
	C551.471436,553.919861 585.860596,544.643677 620.346252,535.688232 
	C644.678467,529.369446 669.155151,523.679504 693.758850,518.527466 
	C694.899353,518.288574 696.030518,517.846680 697.174561,517.815979 
	C699.522827,517.752808 702.241821,516.116089 704.048035,518.934937 
	C705.677063,521.477356 704.908386,524.099731 703.787476,526.580750 
	C702.521118,529.383789 700.607300,531.490051 697.664429,532.834656 
	C634.046692,561.902222 570.457336,591.031677 506.858948,620.141663 
	C503.830688,621.527771 500.810608,622.946228 497.713684,624.163879 
	C494.673462,625.359375 492.194458,626.859192 490.875946,630.172974 
	C489.725311,633.064880 486.703430,633.785706 483.942017,634.529602 
	C472.078339,637.725525 459.927094,638.204224 447.773529,637.787354 
	C439.150909,637.491516 430.500854,636.840088 422.097198,634.458801 
	C418.570618,633.459534 415.585266,632.004639 414.101959,628.372864 
	C412.893311,625.413574 409.928955,624.662170 407.410889,623.507141 
	C374.713013,608.508484 341.991974,593.560425 309.270020,578.614380 
	C275.640350,563.253723 242.009460,547.895630 208.356964,532.585083 
	C205.805237,531.424194 203.803009,529.811951 202.617020,527.304199 
	C201.307831,524.535950 200.216522,521.553040 202.247040,518.782593 
	C204.204819,516.111328 207.118546,517.236267 209.665192,517.776489 
	C267.501740,530.046631 324.691315,544.789001 380.950531,563.015991 
	C393.274475,567.008728 405.401398,571.609436 418.009155,575.302368 
	C414.333588,572.928101 410.765472,570.364380 406.965820,568.208801 
	C369.874817,547.167114 329.977295,533.507935 288.748566,523.336548 
	C263.547028,517.119080 238.182693,511.770386 212.461639,508.164246 
	C205.525040,507.191711 203.725372,502.664673 207.759872,496.016113 
	C202.173279,493.335632 197.113144,489.906464 193.260910,484.963776 
	C192.603928,484.120850 191.679443,484.021393 190.612305,483.934540 
	C170.997803,482.338776 158.382080,471.314331 151.712997,453.538483 
	C145.551346,437.115173 143.481949,419.642700 140.755768,402.408936 
	C138.701263,389.421112 137.403702,376.334900 137.665924,363.132385 
	C137.842133,354.261017 139.185623,345.580811 141.373230,336.591492 
M372.952728,481.430786 
	C406.082092,494.434723 433.328125,514.887085 452.423431,544.722412 
	C508.731903,471.859344 582.549377,455.924164 668.350159,475.820007 
	C669.111938,473.753754 668.772400,471.238190 668.580750,468.820129 
	C666.594910,443.759552 665.523499,418.657898 664.500549,393.541443 
	C663.931213,379.561462 664.135986,365.561066 663.157166,351.592041 
	C662.871094,347.509125 661.245239,346.316345 657.325378,346.092865 
	C641.140869,345.170105 625.073120,345.925171 609.043030,348.294098 
	C556.409729,356.072296 511.744751,379.211670 474.945648,417.605133 
	C473.962677,418.630707 473.229675,420.158112 471.101776,419.855896 
	C470.571014,416.622101 469.860870,413.443726 472.623291,410.651337 
	C489.577057,393.513702 507.875244,378.115112 529.227905,366.632690 
	C561.123962,349.480713 595.214355,340.011688 631.320190,338.193115 
	C637.360229,337.888916 638.640808,335.197052 639.712402,330.323792 
	C645.143982,305.624756 657.630615,286.760254 683.242615,279.196930 
	C686.015686,278.378082 686.799438,277.077240 686.255920,274.107849 
	C683.753235,260.433716 679.489868,247.340530 673.909302,234.645569 
	C666.122559,216.931870 655.441895,201.134109 642.296570,186.974960 
	C641.193115,185.786362 640.076904,184.030548 638.148315,185.258209 
	C631.139038,189.719925 626.313416,185.690964 621.400635,181.285858 
	C604.691833,166.303619 586.331482,153.636276 566.353882,143.472137 
	C521.161255,120.479248 473.269775,112.289474 422.942017,118.162460 
	C390.605804,121.935936 360.348206,132.133881 331.877930,147.778351 
	C314.130646,157.530472 297.894775,169.401154 282.835083,182.927032 
	C279.422058,185.992447 275.321381,188.873672 270.669312,186.528152 
	C266.470795,184.411316 264.280640,185.971130 261.974213,188.997803 
	C260.562256,190.850662 258.971191,192.565964 257.489319,194.366699 
	C238.161621,217.853394 225.379944,244.398788 219.880997,274.403595 
	C219.401932,277.017456 220.076630,278.069672 222.432312,278.730743 
	C247.383514,285.732574 259.661530,304.169067 266.137177,327.625458 
	C268.953461,337.826691 268.703705,337.950684 279.040802,338.581543 
	C315.219910,340.789490 349.095215,350.767426 380.603149,368.688446 
	C400.296478,379.889587 417.750366,393.947144 433.373260,410.328918 
	C436.228760,413.323120 436.853394,416.456207 434.867889,420.757294 
	C430.962616,417.042236 427.393402,413.651001 423.828644,410.255127 
	C375.084930,363.820221 316.801422,343.320068 249.887695,346.208405 
	C245.987442,346.376770 243.312195,346.915131 243.196732,351.959625 
	C242.732056,372.262817 242.048447,392.564423 241.142166,412.853027 
	C240.496262,427.312958 239.130188,441.741943 238.557068,456.203400 
	C238.297302,462.758026 236.915588,469.318848 237.659683,476.769836 
	C260.257782,470.558411 282.422455,466.067261 305.515686,467.400940 
	C328.503815,468.728455 350.702484,473.122528 372.952728,481.430786 
M623.783691,473.960205 
	C621.797668,473.769104 619.815186,473.467377 617.825073,473.403839 
	C595.488831,472.690887 573.628418,475.758759 552.349670,482.437012 
	C510.305817,495.632233 476.137604,518.715454 456.592743,559.833374 
	C455.842163,561.412354 455.250641,563.302307 452.835327,563.794373 
	C450.191925,561.709595 449.179535,558.442505 447.684814,555.554993 
	C435.720276,532.442261 418.413818,514.321838 396.068848,501.180450 
	C361.115479,480.623932 323.425995,471.200684 282.775940,474.100677 
	C266.662872,475.250214 251.253860,479.022919 236.309158,484.991913 
	C233.966675,485.927521 231.758408,487.086578 232.625732,489.973145 
	C233.457382,492.740967 235.863571,492.915100 238.393661,492.307159 
	C246.500580,490.359100 254.749741,489.394165 263.030365,488.471100 
	C302.134827,484.112030 339.746429,489.736359 375.805542,505.334259 
	C400.284729,515.923096 420.387909,531.835083 434.053284,555.161438 
	C439.284698,564.091309 443.695862,573.416077 447.293915,583.118958 
	C448.307709,585.853027 449.891693,587.781677 453.045471,587.776672 
	C456.169708,587.771729 457.883484,585.929199 458.853210,583.170837 
	C459.184418,582.228699 459.534821,581.293030 459.886047,580.358032 
	C468.933685,556.270630 482.681396,535.672241 503.820923,520.397522 
	C522.940979,506.582031 544.481689,498.513672 567.205261,493.222198 
	C600.276367,485.521179 633.470886,484.838470 666.730774,492.007965 
	C669.479187,492.600433 672.360474,493.453979 673.523010,490.121735 
	C674.739502,486.634827 671.718384,485.591553 669.202698,484.602417 
	C654.871338,478.967529 640.184814,474.821106 623.783691,473.960205 
M212.014511,322.884369 
	C212.924911,316.288788 214.099228,309.778839 216.201584,303.408203 
	C217.893082,298.282593 214.984055,293.699951 209.830261,292.309357 
	C201.173920,289.973694 191.410141,297.174408 191.273468,306.559906 
	C191.172226,313.513794 189.801010,320.082092 187.657501,326.594910 
	C180.835449,347.322876 181.848068,368.225220 186.308502,389.200134 
	C186.863968,391.812256 187.783035,393.957611 191.028351,394.017273 
	C199.906815,394.180389 212.861771,385.033386 211.917694,374.675964 
	C210.376129,357.763428 210.509720,340.758331 212.014511,322.884369 
M691.917297,310.877686 
	C693.107300,316.062775 693.922363,321.282837 694.334290,326.609955 
	C695.542664,342.237793 695.167053,357.833008 694.366028,373.466156 
	C693.829895,383.928558 702.374512,392.746613 712.904541,393.794922 
	C716.972778,394.199890 719.303223,392.720703 719.989197,388.707611 
	C721.164429,381.831970 722.791199,375.020142 722.953430,367.999695 
	C722.991943,366.334320 722.992798,364.687164 722.272400,363.108612 
	C715.635010,348.564209 716.428894,333.004059 716.191162,317.606201 
	C716.161438,315.681091 716.957520,313.704224 717.567810,311.814941 
	C720.226257,303.585266 716.350342,295.126862 708.355286,291.839478 
	C703.070496,289.666473 697.605530,289.774048 692.160828,290.825073 
	C686.872925,291.845886 685.317505,295.056458 687.670837,299.909454 
	C689.273010,303.213409 690.809814,306.515442 691.917297,310.877686 
M759.405762,387.964905 
	C760.426270,375.509766 760.996887,363.044708 759.626465,350.583344 
	C757.906128,334.941345 753.664673,320.220642 743.512817,307.732727 
	C740.581055,304.126373 737.392273,300.845154 733.245056,298.749146 
	C732.090332,299.941376 732.635742,300.875732 732.926636,301.803162 
	C737.604858,316.718964 739.049744,332.099518 739.270142,347.616486 
	C739.716858,379.067322 734.838318,409.950775 728.950012,440.703735 
	C727.338074,449.122620 725.313538,457.462494 723.478271,465.838623 
	C727.522522,453.796112 730.313538,441.438873 732.230896,428.975525 
	C733.353516,421.677521 735.863159,417.137299 743.172363,414.511475 
	C753.635986,410.752411 759.803345,403.245544 758.827698,391.322449 
	C758.761780,390.517273 759.068115,389.681641 759.405762,387.964905 
M147.032486,347.449402 
	C145.243256,363.578308 146.504135,379.612183 147.749313,395.729126 
	C148.413452,404.325043 152.179718,410.266327 159.521973,412.375488 
	C171.898773,415.930908 174.091446,425.103729 175.115326,435.630402 
	C175.163635,436.127075 175.200119,436.630981 175.314667,437.114319 
	C177.776810,447.502319 179.561310,458.066071 183.217285,468.147736 
	C182.641525,464.215637 181.604218,460.398071 180.726852,456.544037 
	C174.037491,427.159637 169.277237,397.504883 167.476212,367.373718 
	C166.369156,348.852264 166.994644,330.502136 170.525085,312.277283 
	C171.363937,307.946930 172.311661,303.637665 173.260071,299.074371 
	C160.768753,304.986328 149.461700,325.804260 147.032486,347.449402 
M430.937195,615.237854 
	C428.752319,615.518616 426.633209,615.898743 425.938690,618.456238 
	C426.716614,620.557373 428.626129,621.111572 430.343231,621.364929 
	C445.539886,623.607361 460.760834,623.697937 475.944519,621.271790 
	C477.737671,620.985291 480.431000,620.609741 480.196259,617.974609 
	C480.005981,615.839111 477.664856,615.622925 475.880066,615.359558 
	C461.182129,613.190125 446.469147,612.917419 430.937195,615.237854 
z"/>
<path fill="#000000" opacity="1.000000" stroke="none" 
	d="
M127.652634,281.705811 
	C131.474991,282.020813 132.053375,284.513977 131.979874,287.106415 
	C131.448395,305.853119 133.596008,324.674408 130.444046,343.351135 
	C130.224335,344.652954 130.290482,346.004669 130.244507,347.333893 
	C129.944901,355.993286 126.396553,358.439819 117.912544,355.913330 
	C115.042358,355.058594 113.976372,353.012146 113.969635,350.275818 
	C113.917648,329.156219 113.880653,308.036499 113.885368,286.916840 
	C113.886131,283.478912 115.788269,281.745483 119.213661,281.711792 
	C121.874199,281.685638 124.535080,281.694916 127.652634,281.705811 
z"/>
<path fill="#000000" opacity="1.000000" stroke="none" 
	d="
M791.388306,292.060608 
	C791.382080,311.192657 791.387085,329.832397 791.362549,348.472046 
	C791.354126,354.877136 790.872986,355.336884 784.610901,355.418915 
	C776.281311,355.528015 776.919067,355.427429 775.596497,347.042480 
	C772.616882,328.151733 774.231873,309.185791 773.783142,290.258820 
	C773.584656,281.886902 773.940247,281.692352 782.535339,281.688477 
	C791.367432,281.684479 791.367432,281.684479 791.388306,292.060608 
z"/>
<path fill="#000000" opacity="1.000000" stroke="none" 
	d="
M184.161743,229.464676 
	C184.232513,243.383148 184.186325,256.847839 184.293854,270.311310 
	C184.316360,273.128296 183.591446,275.130127 180.826797,276.189972 
	C176.206039,277.961334 172.414719,281.442078 167.278748,283.004944 
	C166.164246,279.637390 166.129395,276.359406 166.108871,273.127777 
	C166.023468,259.663635 166.006393,246.198746 166.031479,232.734268 
	C166.042603,226.763138 166.959747,225.674820 173.045654,225.937790 
	C176.854980,226.102402 181.598007,223.836563 184.161743,229.464676 
z"/>
<path fill="#000000" opacity="1.000000" stroke="none" 
	d="
M739.357483,259.000153 
	C739.357422,266.954712 739.357422,274.409302 739.357422,283.238983 
	C733.203003,279.954407 728.012085,277.249481 722.896545,274.408936 
	C721.582764,273.679413 721.694031,272.118164 721.692444,270.790161 
	C721.676697,257.476227 721.723450,244.162048 721.645264,230.848572 
	C721.625305,227.457809 723.199890,225.947556 726.431641,225.896362 
	C741.652588,225.655243 739.231445,225.139557 739.349854,237.530731 
	C739.416626,244.519928 739.359070,251.510330 739.357483,259.000153 
z"/>
<path fill="#000000" opacity="1.000000" stroke="none" 
	d="
M747.735229,275.013184 
	C747.749939,271.358337 747.784546,268.198853 747.776062,265.039490 
	C747.767212,261.747192 749.554138,260.325470 752.666870,259.938934 
	C764.053833,258.524872 765.343872,259.618347 765.334961,270.972198 
	C765.325989,282.280090 765.330994,293.587982 765.294189,304.895782 
	C765.288513,306.647522 765.603088,308.479034 764.571777,310.511200 
	C761.814697,309.017609 761.253174,306.189148 759.638855,304.242493 
	C758.473328,302.837036 757.682556,301.020508 756.304382,299.908142 
	C748.373840,293.507538 746.504883,285.074921 747.735229,275.013184 
z"/>
<path fill="#000000" opacity="1.000000" stroke="none" 
	d="
M140.659271,307.067078 
	C140.650543,293.174561 140.788040,279.684113 140.598831,266.198242 
	C140.535004,261.648743 142.346832,259.959503 146.737427,259.840912 
	C157.811722,259.541687 157.947449,259.857330 158.270950,270.963837 
	C158.598557,282.211395 159.300430,293.251434 148.523605,300.934662 
	C146.354660,302.480957 145.291687,305.529633 143.568909,307.770325 
	C142.637680,308.981506 141.332886,310.461548 140.659271,307.067078 
z"/>
<path fill="#000000" opacity="1.000000" stroke="none" 
	d="
M805.245850,305.739655 
	C807.361328,305.744446 809.026367,305.738281 810.690430,305.775116 
	C814.078064,305.850098 816.012634,307.522156 816.068298,310.977448 
	C816.159485,316.636322 816.171814,322.296722 816.178894,327.956543 
	C816.182434,330.785950 814.690369,332.238708 811.881042,332.368378 
	C811.714722,332.376038 811.548035,332.380005 811.382263,332.394287 
	C799.425537,333.426361 799.006592,333.049591 798.954712,321.066101 
	C798.941772,318.069702 799.035706,315.071838 798.972778,312.076904 
	C798.888367,308.057434 800.514343,305.705963 805.245850,305.739655 
z"/>
<path fill="#000000" opacity="1.000000" stroke="none" 
	d="
M97.078506,332.417419 
	C89.857460,332.235840 89.691078,332.082672 89.656677,325.271912 
	C89.632385,320.463654 89.756714,315.652802 89.635788,310.847565 
	C89.556351,307.691681 91.175293,306.267609 94.028038,305.968781 
	C95.835068,305.779480 97.670876,305.785706 99.491554,305.820496 
	C105.579018,305.936890 106.303909,306.685181 106.341347,312.791199 
	C106.363716,316.438812 106.349991,320.086731 106.347427,323.734497 
	C106.341324,332.415680 106.340111,332.415680 97.078506,332.417419 
z"/>
<path fill="#000000" opacity="1.000000" stroke="none" 
	d="
M823.062866,319.156860 
	C827.713562,315.680054 834.944092,315.993591 839.548035,319.464417 
	C835.806213,324.646637 825.436707,324.705170 823.062866,319.156860 
z"/>
<path fill="#000000" opacity="1.000000" stroke="none" 
	d="
M70.781586,317.242920 
	C73.987480,317.080994 76.792084,316.884766 79.581734,317.013153 
	C81.146591,317.085175 82.378044,318.105469 82.656464,319.778809 
	C82.875702,321.096466 81.996643,321.914551 80.968407,322.552460 
	C77.859123,324.481476 69.285294,323.130585 66.291565,320.210144 
	C66.669472,317.878082 68.717102,317.882477 70.781586,317.242920 
z"/>
<path fill="#000000" opacity="1.000000" stroke="none" 
	d="
M428.463287,337.794067 
	C408.332153,331.124847 397.074280,315.776245 396.881531,293.694092 
	C396.583405,259.539581 396.465057,225.376633 396.887177,191.224884 
	C397.231476,163.367035 417.759857,143.218292 446.335968,141.763657 
	C455.841553,141.279755 465.256134,141.735474 474.545837,144.378952 
	C494.503021,150.057938 509.090210,168.173813 509.231354,188.879425 
	C509.476685,224.867905 509.499664,260.860260 509.267120,296.848724 
	C509.138947,316.688751 495.057800,333.764954 475.760803,338.421112 
	C460.088531,342.202637 444.438965,341.991699 428.463287,337.794067 
M486.710968,270.848907 
	C478.891815,270.485260 471.075592,269.954132 463.252472,269.817413 
	C458.124298,269.727753 457.816925,266.646393 457.989502,262.790161 
	C458.179626,258.541107 460.568024,257.556610 464.351196,257.856873 
	C472.646698,258.515198 480.955017,259.023773 489.263306,259.502441 
	C491.973236,259.658600 495.154175,259.710144 495.202209,255.957260 
	C495.245361,252.587158 492.327820,252.431564 489.722870,252.327713 
	C481.239868,251.989609 472.760681,251.477966 464.274750,251.324860 
	C459.918732,251.246262 457.851227,249.628036 457.851562,245.104294 
	C457.851898,240.607574 460.057159,239.392532 464.135132,239.642258 
	C472.610840,240.161240 481.098511,240.496262 489.584320,240.829849 
	C492.071411,240.927612 495.192780,241.191772 495.372986,237.732666 
	C495.554443,234.248184 492.423553,234.404907 489.941162,234.082779 
	C481.317322,232.963669 472.635376,233.379150 463.982330,233.053207 
	C460.865448,232.935806 458.460510,232.309692 457.942596,228.584793 
	C457.102295,222.541458 458.864716,220.648422 464.998383,221.071594 
	C473.630798,221.667175 482.272339,222.132782 490.911682,222.623947 
	C493.122406,222.749634 495.145386,222.042358 495.383331,219.635910 
	C495.644806,216.991928 493.610626,215.899841 491.307892,215.469193 
	C490.335785,215.287399 489.314758,215.369659 488.316254,215.325882 
	C479.995941,214.961273 471.678558,214.453873 463.354340,214.287704 
	C459.018890,214.201157 458.087799,211.897079 458.049866,208.193634 
	C458.010071,204.303162 459.242401,202.332581 463.548065,202.590897 
	C472.356415,203.119339 481.182587,203.360626 490.003448,203.661316 
	C492.218384,203.736801 494.575439,203.676422 494.874329,200.672180 
	C495.178589,197.614014 492.966827,197.195908 490.671814,196.997955 
	C488.019287,196.769150 485.368927,196.459930 482.711029,196.359879 
	C476.716187,196.134247 470.717987,195.978470 464.719788,195.866837 
	C460.538605,195.789017 457.704987,194.722824 457.931274,189.574463 
	C458.150635,184.582962 460.699158,183.280319 465.084442,183.725357 
	C467.898773,184.010971 470.725525,184.221344 473.551910,184.331314 
	C479.543091,184.564407 485.536865,184.749969 491.531311,184.867935 
	C493.468384,184.906052 495.385437,184.419983 495.483002,182.020660 
	C495.583069,179.558197 493.914948,178.534698 491.667389,178.284515 
	C491.170776,178.229233 490.668701,178.154495 490.172577,178.174545 
	C485.811401,178.350922 484.293457,176.154678 484.564575,171.975723 
	C484.790558,168.492935 484.700287,164.972641 484.487457,161.485001 
	C484.367493,159.519608 483.232758,157.922394 481.012146,157.928635 
	C478.557037,157.935532 478.120789,159.764236 478.110321,161.754395 
	C478.094574,164.753967 478.080139,167.754135 478.120056,170.753311 
	C478.171570,174.623001 476.972443,177.289612 472.461121,177.167755 
	C468.283417,177.054901 465.884949,175.323700 465.956177,170.818756 
	C466.029938,166.154175 465.938934,161.486526 465.886017,156.820618 
	C465.861847,154.688492 465.456757,152.618286 462.801117,152.524490 
	C460.239807,152.434036 460.162811,154.618423 459.860657,156.405533 
	C459.076324,161.044357 459.373077,165.690964 459.671936,170.358307 
	C459.938538,174.521286 457.730133,176.363937 453.559509,176.357712 
	C449.527435,176.351685 447.239044,175.069962 447.462738,170.549042 
	C447.684723,166.062531 447.634033,161.549591 447.428131,157.060837 
	C447.338409,155.104416 446.805176,152.734665 444.176239,152.777954 
	C441.486389,152.822250 441.248535,155.190720 441.198761,157.193253 
	C441.086945,161.689636 441.083588,166.192444 441.184387,170.689301 
	C441.277954,174.862579 439.349304,176.809006 435.200836,176.887268 
	C430.998566,176.966553 429.031769,174.946884 429.073242,170.840530 
	C429.103485,167.848572 429.360626,164.847580 429.191620,161.869034 
	C429.083252,159.959595 428.154877,158.251877 425.777405,158.343597 
	C423.539551,158.429962 422.509125,159.851776 422.408844,161.930649 
	C422.296539,164.258865 422.331635,166.595001 422.331940,168.927689 
	C422.333038,176.891434 422.345825,176.936569 414.692322,178.266449 
	C412.583740,178.632812 411.242798,179.494385 411.330109,181.774506 
	C411.420288,184.129929 413.032745,184.854263 415.056122,184.918427 
	C416.719391,184.971176 418.389313,184.910843 420.053131,184.832703 
	C427.705200,184.473343 435.357422,184.113419 443.007111,183.706970 
	C447.724121,183.456345 448.335083,186.313934 448.409546,190.136932 
	C448.484863,194.006119 447.024475,195.368240 443.146210,195.473343 
	C434.163177,195.716797 425.190155,196.366791 416.216980,196.915222 
	C413.878906,197.058121 411.191132,197.135300 411.342407,200.518005 
	C411.493561,203.897949 414.151428,203.744736 416.511230,203.662308 
	C424.997467,203.365829 433.486298,203.094208 441.964355,202.633621 
	C446.120911,202.407806 448.521301,203.229736 448.463013,208.260452 
	C448.408478,212.963959 446.494476,214.272675 442.153473,214.332138 
	C433.163422,214.455276 424.178345,214.967392 415.192413,215.348007 
	C412.933014,215.443726 411.257233,216.320786 411.377411,218.933517 
	C411.488342,221.345581 413.235596,221.865494 415.209290,221.939941 
	C416.706543,221.996399 418.210114,221.979095 419.707642,221.916840 
	C427.360474,221.598602 435.010864,221.215820 442.665283,220.945969 
	C444.783356,220.871292 447.107788,220.609161 448.111938,223.311707 
	C450.238220,229.034225 447.786041,232.744110 441.746490,232.925262 
	C433.587646,233.169983 425.422424,233.307632 417.274933,233.760956 
	C414.837341,233.896606 411.277313,233.565002 411.394806,237.532562 
	C411.517761,241.683868 415.018860,240.708923 417.476593,240.646240 
	C425.797333,240.434036 434.119446,240.128418 442.427612,239.632706 
	C446.581543,239.384888 448.481354,240.583160 448.470642,245.154160 
	C448.459839,249.756836 446.694397,251.283905 442.254669,251.335617 
	C433.767822,251.434479 425.286743,251.990448 416.801880,252.320694 
	C414.191864,252.422272 411.321655,252.521332 411.463135,256.001587 
	C411.617493,259.798004 414.668091,259.549347 417.431458,259.383362 
	C425.909302,258.874054 434.390961,258.426849 442.866943,257.889252 
	C446.182190,257.679016 448.469269,258.439209 448.348907,262.406555 
	C448.244324,265.853882 449.174347,269.453918 443.503845,269.563354 
	C434.355011,269.739899 425.218201,270.556000 416.077484,271.120941 
	C413.886230,271.256348 411.399963,271.263977 411.461548,274.370605 
	C411.526642,277.651520 414.013580,277.823273 416.480927,277.726624 
	C425.132172,277.387726 433.793732,277.188843 442.428589,276.602051 
	C447.084015,276.285675 448.617340,277.990967 448.454987,282.582916 
	C448.313019,286.599060 446.896301,288.276154 442.847839,288.361908 
	C434.026276,288.548828 425.211243,289.035919 416.392426,289.370789 
	C413.919556,289.464691 411.384827,289.750153 411.332275,292.869537 
	C411.274170,296.319946 413.916748,296.661346 416.616272,296.573944 
	C416.949402,296.563171 417.284546,296.564056 417.614838,296.525665 
	C421.103027,296.120392 422.470245,297.773682 422.383179,301.158752 
	C422.280396,305.155731 422.345642,309.158112 422.395691,313.157440 
	C422.425507,315.539276 423.172180,317.643829 425.964111,317.629150 
	C428.733795,317.614532 428.872162,315.308685 428.903778,313.273438 
	C428.963348,309.441620 428.931244,305.607513 428.880341,301.775085 
	C428.824677,297.585358 430.917847,295.731812 435.030823,295.719757 
	C439.213226,295.707520 441.148407,297.730713 441.127777,301.842102 
	C441.101868,307.008423 441.075684,312.175537 441.141418,317.341125 
	C441.168182,319.447571 440.835236,322.242279 443.986603,322.159302 
	C446.901825,322.082550 446.918762,319.395691 446.966553,317.233582 
	C447.088196,311.735840 447.039429,306.234253 447.162659,300.736542 
	C447.265747,296.136597 450.417603,295.543945 454.095734,295.587921 
	C457.787170,295.632080 459.613098,297.225830 459.514557,301.077026 
	C459.373932,306.573456 459.407898,312.075531 459.444092,317.574707 
	C459.458130,319.709473 459.989288,321.728668 462.659546,321.756989 
	C465.424530,321.786377 465.752075,319.729431 465.758057,317.585938 
	C465.772003,312.586151 465.817902,307.585632 465.751282,302.586731 
	C465.697266,298.533875 466.883087,295.801575 471.595978,295.692352 
	C476.161926,295.586609 477.939484,297.886841 477.844849,302.122406 
	C477.759399,305.946808 477.505890,309.771362 477.550903,313.593231 
	C477.575836,315.713806 478.377106,317.679626 481.004120,317.602753 
	C483.410797,317.532288 483.899902,315.670837 483.942810,313.717712 
	C484.016022,310.385986 484.092621,307.048737 483.982880,303.719910 
	C483.827148,298.994904 485.054535,295.864868 490.728851,296.634369 
	C492.994507,296.941650 495.352722,296.404785 495.507294,293.537354 
	C495.668701,290.543091 493.224945,290.251495 490.996765,290.098755 
	C482.195587,289.495453 473.395325,288.864136 464.587128,288.383362 
	C459.193115,288.088959 458.038208,286.925568 458.039978,281.979889 
	C458.041748,276.998291 460.931824,276.379364 464.950775,276.637299 
	C472.429352,277.117188 479.918365,277.519440 487.408966,277.684204 
	C490.296844,277.747711 494.902252,279.370880 495.205475,274.887421 
	C495.545349,269.861938 490.526642,271.643890 486.710968,270.848907 
z"/>
<path fill="#000000" opacity="1.000000" stroke="none" 
	d="
M465.185852,454.939850 
	C465.301483,465.940094 464.264191,464.908630 475.044739,464.908020 
	C476.877289,464.907898 478.710327,464.848511 480.542267,464.875854 
	C490.620056,465.026215 497.411499,473.070312 496.279022,483.176880 
	C495.926727,486.320770 494.017334,486.410248 491.752808,486.407867 
	C483.922516,486.399536 476.092194,486.376404 468.261902,486.371216 
	C450.768585,486.359650 433.275208,486.373444 415.781952,486.338043 
	C410.013214,486.326385 409.527313,485.701050 410.269409,479.873901 
	C411.674042,468.843994 416.122223,464.953613 427.434662,464.870087 
	C430.266846,464.849152 433.127686,464.584991 435.924866,464.892303 
	C440.470276,465.391632 441.641174,463.307556 441.618805,459.140778 
	C441.511505,439.149261 441.583984,419.156677 441.636993,399.164581 
	C441.646637,395.531494 440.846863,392.913574 436.365265,393.240173 
	C433.542999,393.445862 432.662445,391.629639 432.684814,389.074127 
	C432.727112,384.243134 432.813019,379.407104 432.642303,374.581604 
	C432.528503,371.364166 433.867676,369.921387 437.006622,370.036652 
	C440.920868,370.180359 441.663116,367.782990 441.658691,364.528442 
	C441.654205,361.223785 441.864502,358.181427 437.184021,357.808136 
	C428.552032,357.119690 420.021484,355.895935 411.978943,352.284790 
	C393.205109,343.855225 384.445190,328.939972 383.894501,308.862061 
	C383.584015,297.541107 383.776245,286.205536 383.804871,274.876709 
	C383.811401,272.288910 383.425323,270.111847 381.322235,268.176056 
	C375.520294,262.835724 375.407471,251.387360 386.117340,245.678268 
	C390.150818,243.528152 393.135468,245.587982 393.153168,250.415833 
	C393.216064,267.575500 393.035309,284.737183 393.229462,301.894928 
	C393.508392,326.547516 405.281982,340.896088 429.511749,345.116211 
	C446.519836,348.078522 463.784332,347.653229 480.693420,344.343689 
	C501.566681,340.258301 512.998779,325.095123 513.030823,303.073029 
	C513.055786,285.914276 512.980408,268.755371 513.042603,251.596863 
	C513.050537,249.412140 512.151550,246.545593 515.012329,245.453857 
	C517.665527,244.441345 520.044189,245.382202 522.359375,247.219666 
	C530.570190,253.736191 531.450928,261.544342 524.373474,269.358734 
	C522.592163,271.325531 522.349731,273.426605 522.348022,275.781891 
	C522.340149,286.444489 522.316711,297.107056 522.312012,307.769653 
	C522.300598,333.959991 507.274841,351.787903 481.313202,356.272095 
	C477.717712,356.893127 474.051758,357.136139 470.409149,357.445648 
	C466.922363,357.741913 464.814026,358.991089 465.210602,363.043396 
	C465.540680,366.416168 464.313568,370.449371 470.042816,370.169189 
	C472.834137,370.032684 474.317932,371.531219 474.252441,374.489807 
	C474.145477,379.319031 474.192261,384.151489 474.103607,388.981293 
	C474.054291,391.667328 472.987305,393.555878 469.906128,393.284698 
	C465.542297,392.900635 465.098785,395.602295 465.110626,398.974121 
	C465.175415,417.466339 465.168732,435.958832 465.185852,454.939850 
z"/>
<path fill="#000000" opacity="1.000000" stroke="none" 
	d="
M630.575989,212.248535 
	C646.371948,210.337006 646.352783,210.337021 646.367126,225.360977 
	C646.388977,248.328644 646.408325,271.296448 646.536621,294.263580 
	C646.547668,296.227539 646.080261,297.813751 645.068298,299.391785 
	C640.736450,306.147003 637.413452,313.386566 634.684998,320.922943 
	C634.048096,322.682312 633.783875,325.332794 631.050415,324.836426 
	C628.463318,324.366577 628.760254,321.856659 628.755676,319.925781 
	C628.702759,297.623047 628.697937,275.320190 628.691040,253.017349 
	C628.687500,241.533020 628.686951,230.048615 628.729919,218.564407 
	C628.737854,216.448776 628.289246,214.172607 630.575989,212.248535 
z"/>
<path fill="#000000" opacity="1.000000" stroke="none" 
	d="
M305.236145,311.878845 
	C305.182007,320.046051 305.128784,320.367706 297.509125,319.107086 
	C286.545990,317.293335 286.791779,320.365662 286.809601,307.376495 
	C286.844360,282.081024 286.814148,256.785461 286.854675,231.490021 
	C286.865448,224.774963 287.626221,224.086472 294.314880,224.005875 
	C305.242340,223.874161 305.251831,223.874176 305.252106,235.013321 
	C305.252686,260.475281 305.243011,285.937256 305.236145,311.878845 
z"/>
<path fill="#000000" opacity="1.000000" stroke="none" 
	d="
M332.054871,301.000000 
	C332.029541,307.665100 331.916473,313.831635 332.014191,319.994843 
	C332.076721,323.937866 330.838440,325.339294 326.637329,324.300690 
	C313.729462,321.109650 313.714264,321.235748 313.718292,307.726349 
	C313.724060,288.397705 313.690735,269.069031 313.702393,249.740372 
	C313.705933,243.873367 314.472382,243.120300 320.245911,242.921646 
	C332.101837,242.513733 332.090454,242.513733 332.076721,254.511078 
	C332.059174,269.840729 332.062225,285.170349 332.054871,301.000000 
z"/>
<path fill="#000000" opacity="1.000000" stroke="none" 
	d="
M593.329834,255.130508 
	C593.330627,275.751190 593.230957,295.889801 593.415771,316.025818 
	C593.452026,319.978149 592.160461,321.855743 588.290161,322.285187 
	C584.363159,322.720947 580.666138,324.684753 576.664124,324.212372 
	C575.260010,322.934052 575.629272,321.348938 575.626831,319.907593 
	C575.590271,298.272125 575.686707,276.635742 575.499451,255.001755 
	C575.458435,250.258194 577.038330,248.170258 581.839294,248.661530 
	C583.650818,248.846909 585.513611,248.842239 587.325195,248.655121 
	C591.867065,248.185928 593.937439,250.034622 593.329834,255.130508 
z"/>
<path fill="#000000" opacity="1.000000" stroke="none" 
	d="
M260.682190,279.999115 
	C260.684570,268.840851 260.837219,258.179352 260.618042,247.525482 
	C260.527161,243.107178 262.046356,241.204697 266.559509,240.992325 
	C278.409424,240.434708 278.405548,240.309097 278.402069,252.234253 
	C278.395599,274.217194 278.415405,296.200287 278.332031,318.182922 
	C278.324005,320.294617 279.370758,323.201202 276.011871,323.957153 
	C272.500275,324.747467 272.026947,321.871368 271.107880,319.575439 
	C268.635681,313.399658 266.415436,307.099854 262.618774,301.551025 
	C261.151154,299.406036 260.583618,297.086823 260.644440,294.487457 
	C260.753448,289.826843 260.679840,285.162018 260.682190,279.999115 
z"/>
<path fill="#000000" opacity="1.000000" stroke="none" 
	d="
M345.248505,268.740875 
	C359.445496,268.709015 358.281219,267.203247 358.278931,281.236115 
	C358.276459,296.354980 358.295471,311.473907 358.268555,326.592712 
	C358.265045,328.555878 358.637543,330.583221 357.344360,333.130646 
	C351.947144,332.519989 346.859222,330.279022 341.806030,328.069519 
	C340.200256,327.367432 340.653442,325.449738 340.650391,324.002838 
	C340.615173,307.388763 340.632355,290.774567 340.588409,274.160522 
	C340.580566,271.189941 341.102997,268.794708 345.248505,268.740875 
z"/>
<path fill="#000000" opacity="1.000000" stroke="none" 
	d="
M557.681885,330.797272 
	C548.827026,334.040863 548.825562,334.040863 548.818604,325.238800 
	C548.809021,313.100372 548.911072,300.960419 548.736877,288.824371 
	C548.673035,284.377380 550.248596,282.500031 554.841370,282.605011 
	C567.633667,282.897461 567.214844,280.427032 567.111328,294.909882 
	C567.056702,302.558258 567.112671,310.207367 567.090332,317.856049 
	C567.061890,327.608002 567.049561,327.607971 557.681885,330.797272 
z"/>
<path fill="#000000" opacity="1.000000" stroke="none" 
	d="
M601.958679,303.994263 
	C601.987366,295.338745 602.071594,287.181915 602.013184,279.026093 
	C601.986572,275.301178 603.461121,273.696869 607.355225,273.597961 
	C620.244141,273.270599 620.230835,273.161652 620.165405,286.280304 
	C620.123108,294.769897 619.957275,303.263519 620.159546,311.747894 
	C620.267639,316.282776 618.924866,318.832672 613.979553,318.328308 
	C613.651123,318.294830 613.314026,318.333801 612.981750,318.352844 
	C601.989380,318.981018 601.989014,318.981293 601.957520,307.989136 
	C601.954163,306.823853 601.956360,305.658600 601.958679,303.994263 
z"/>
<path fill="#000000" opacity="1.000000" stroke="none" 
	d="
M366.762451,290.359741 
	C367.679016,284.379639 372.011292,285.678864 375.416443,285.840851 
	C379.154724,286.018677 378.310516,289.219391 378.361389,291.582184 
	C378.596893,302.517090 377.454193,313.534119 380.309875,324.307281 
	C380.818268,326.225220 381.175995,328.325562 382.229614,329.930511 
	C385.768005,335.320435 384.449036,341.024170 384.014008,347.569611 
	C378.408569,344.808685 373.217590,342.414429 368.198792,339.701538 
	C366.131409,338.584076 366.745636,336.151276 366.741882,334.211487 
	C366.713745,319.748627 366.735291,305.285706 366.762451,290.359741 
z"/>
<path fill="#000000" opacity="1.000000" stroke="none" 
	d="
M534.453674,341.454315 
	C530.555969,343.369049 527.007812,345.133392 523.451477,346.881012 
	C523.340271,346.935669 523.144104,346.817474 522.541870,346.672760 
	C521.113953,342.715881 520.801086,338.112396 522.432190,334.377563 
	C527.383301,323.040924 528.152893,311.261597 527.641724,299.234253 
	C527.469543,295.182770 528.007385,292.542084 533.156067,292.825989 
	C539.528320,293.177307 540.324158,293.543579 540.337341,299.428711 
	C540.362244,310.564240 540.107361,321.706970 540.448669,332.832001 
	C540.589233,337.414551 539.162781,340.124237 534.453674,341.454315 
z"/>
<path fill="#000000" opacity="1.000000" stroke="none" 
	d="
M670.364136,251.217651 
	C672.291931,252.068985 673.098267,253.303894 673.116150,254.915604 
	C673.186340,261.238129 673.195557,267.561401 673.206787,273.884430 
	C673.209351,275.316132 672.684937,276.553314 671.300537,277.120911 
	C665.921509,279.326263 661.170166,282.655762 656.564941,285.777039 
	C654.783142,284.598999 655.000977,283.174500 655.001343,281.883087 
	C655.003723,273.729126 654.969238,265.573761 655.109131,257.421631 
	C655.208008,251.667130 656.082764,250.921021 661.960999,250.903564 
	C664.619812,250.895660 667.279053,251.015564 670.364136,251.217651 
z"/>
<path fill="#000000" opacity="1.000000" stroke="none" 
	d="
M252.190308,277.910095 
	C251.968933,281.135529 252.679031,283.981018 251.168457,287.559753 
	C245.832794,283.605957 240.899078,279.788818 235.281799,277.102600 
	C234.177322,276.574432 234.044189,275.174683 234.031357,273.994659 
	C233.975311,268.841614 233.953659,263.688202 233.936935,258.534821 
	C233.935333,258.041656 233.902512,257.454376 234.140411,257.068878 
	C237.472015,251.669693 242.793930,254.500977 247.269302,254.070587 
	C250.434937,253.766144 252.186874,255.709991 252.193283,258.971436 
	C252.205399,265.122650 252.193176,271.273926 252.190308,277.910095 
z"/>
</svg>